# xmcd CD database file
#
# Track frame offsets:
#	150
#	35357
#	62005
#	85953
#	117332
#	169865
#
# Disc length: 2408 seconds
#
# Revision: 0
# Processed by: cddbd v1.4PL0 Copyright (c) Steve Scherf et al.
# Submitted via: CDex 1.50beta10
#
DISCID=48096606
DTITLE=Mata Mandir Singh and friends - The Yoga of Sound - Cherdi Kala, the ever rising spirit
DYEAR=2001
DGENRE=New Age
TTITLE0=Ang Sang Wahe Guru
TTITLE1=I am Thine in Mine Myself
TTITLE2=Sat Narayan
TTITLE3=Wahe Guru Chant
TTITLE4=Kundalini Surjhi
TTITLE5=May the Long Time Sun Shine Upon You
EXTD=YEAR: 2001
EXTT0=
EXTT1=
EXTT2=
EXTT3=
EXTT4=
EXTT5=
PLAYORDER=
